M48
; DRILL file {KiCad 9.0.6+1} date 2026-02-02T20:56:18+0300
; FORMAT={-:-/ absolute / metric / decimal}
; #@! TF.CreationDate,2026-02-02T20:56:18+03:00
; #@! TF.GenerationSoftware,Kicad,Pcbnew,9.0.6+1
; #@! TF.FileFunction,MixedPlating,1,2
FMAT,2
METRIC
; #@! TA.AperFunction,Plated,PTH,ViaDrill
T1C0.100
; #@! TA.AperFunction,Plated,PTH,ViaDrill
T2C0.200
; #@! TA.AperFunction,Plated,PTH,ViaDrill
T3C0.300
%
G90
G05
T1
X-0.003Y0.001
X0.841Y-22.74
X24.53Y-0.737
X24.67Y-21.65
T2
X-84.587Y31.494
X102.774Y-243.211
T3
X3.145Y-8.731
X3.155Y-12.801
X5.166Y-6.972
X5.426Y-10.112
X5.436Y-13.546
X5.566Y-20.082
X6.516Y-8.239
X7.576Y-8.239
X8.071Y-9.775
X8.496Y-17.573
X9.396Y-5.182
X9.806Y-8.282
X10.745Y-9.621
X11.586Y-9.621
X12.396Y-17.552
X12.538Y-15.873
X12.886Y-14.122
X14.436Y-8.772
X14.876Y-16.322
X15.546Y-10.972
X15.642Y-19.939
X17.955Y-17.781
X19.055Y-7.432
X19.314Y-20.105
X19.656Y-17.542
X19.975Y-16.171
X20.217Y-20.631
X20.926Y-7.322
X22.656Y-7.012
X22.826Y-16.342
M30
